<svg width="550" height="703" viewBox="0 0 550 703" fill="none" xmlns="http://www.w3.org/2000/svg">
<line x1="141.5" y1="703" x2="141.5" y2="5.00006" stroke="black" stroke-width="5"/>
<line x1="53" y1="2.5" x2="474" y2="2.5" stroke="black" stroke-width="5"/>
<line x1="2.18557e-07" y1="700.5" x2="288" y2="700.5" stroke="black" stroke-width="5"/>
<line x1="142.157" y1="75.3107" x2="208.157" y2="3.31072" stroke="black" stroke-width="5"/>
<circle cx="474" cy="166" r="73.5" fill="white" stroke="black" stroke-width="5"/>
<circle cx="445.5" cy="145.5" r="10" fill="white" stroke="black" stroke-width="5"/>
<circle cx="501.5" cy="145.5" r="10" fill="white" stroke="black" stroke-width="5"/>
<path d="M433 182V182C437.407 188.174 443.124 193.298 449.741 197.006L450.846 197.625V197.625C465.89 203.646 482.666 203.692 497.743 197.752L498.064 197.625L502.938 194.894C507.114 192.554 511.038 189.792 514.65 186.652L520 182" stroke="black" stroke-width="4"/>
<line x1="475" y1="-4.37114e-08" x2="475" y2="90" stroke="black" stroke-width="2"/>
</svg>
