<svg width="584" height="703" viewBox="0 0 584 703" fill="none" xmlns="http://www.w3.org/2000/svg">
<line x1="141.5" y1="703" x2="141.5" y2="5.00006" stroke="black" stroke-width="5"/>
<line x1="53" y1="2.5" x2="474" y2="2.5" stroke="black" stroke-width="5"/>
<line x1="2.18557e-07" y1="700.5" x2="288" y2="700.5" stroke="black" stroke-width="5"/>
<line x1="142.157" y1="75.3107" x2="208.157" y2="3.31072" stroke="black" stroke-width="5"/>
<line x1="471.5" y1="230" x2="471.5" y2="447" stroke="black" stroke-width="5"/>
<line x1="472.824" y1="445.71" x2="382.824" y2="541.71" stroke="black" stroke-width="5"/>
<line x1="562.172" y1="544.714" x2="472.176" y2="448.71" stroke="black" stroke-width="5"/>
<line x1="359.073" y1="243.742" x2="471.965" y2="297.412" stroke="black" stroke-width="5"/>
<line x1="469.926" y1="297.749" x2="582.815" y2="244.073" stroke="black" stroke-width="5"/>
<circle cx="474" cy="166" r="73.5" fill="white" stroke="black" stroke-width="5"/>
<path d="M491.5 197C491.5 199.06 490.056 201.382 486.733 203.328C483.469 205.238 478.796 206.5 473.5 206.5C468.204 206.5 463.531 205.238 460.267 203.328C456.944 201.382 455.5 199.06 455.5 197C455.5 194.94 456.944 192.618 460.267 190.672C463.531 188.762 468.204 187.5 473.5 187.5C478.796 187.5 483.469 188.762 486.733 190.672C490.056 192.618 491.5 194.94 491.5 197Z" fill="white" stroke="black" stroke-width="5"/>
<line x1="475" y1="-4.37114e-08" x2="475" y2="90" stroke="black" stroke-width="2"/>
<line y1="-2.5" x2="34.3148" y2="-2.5" transform="matrix(0.686023 -0.72758 0.686023 0.72758 434.459 157.967)" stroke="black" stroke-width="5"/>
<line y1="-2.5" x2="34.3148" y2="-2.5" transform="matrix(0.686023 0.72758 -0.686023 0.72758 433 133.033)" stroke="black" stroke-width="5"/>
<line y1="-2.5" x2="34.3148" y2="-2.5" transform="matrix(0.686023 -0.72758 0.686023 0.72758 489.459 157.967)" stroke="black" stroke-width="5"/>
<line y1="-2.5" x2="34.3148" y2="-2.5" transform="matrix(0.686023 0.72758 -0.686023 0.72758 488 133.033)" stroke="black" stroke-width="5"/>
</svg>
