<svg width="587" height="707" viewBox="0 0 587 707" fill="none" xmlns="http://www.w3.org/2000/svg">
<line x1="141.5" y1="703" x2="141.5" y2="5.00006" stroke="black" stroke-width="5"/>
<line x1="53" y1="2.5" x2="474" y2="2.5" stroke="black" stroke-width="5"/>
<line x1="2.18557e-07" y1="700.5" x2="288" y2="700.5" stroke="black" stroke-width="5"/>
<line x1="142.157" y1="75.3107" x2="208.157" y2="3.31072" stroke="black" stroke-width="5"/>
<line x1="474.5" y1="390" x2="474.5" y2="607" stroke="black" stroke-width="5"/>
<line x1="475.824" y1="605.71" x2="385.824" y2="701.71" stroke="black" stroke-width="5"/>
<line x1="565.172" y1="704.714" x2="475.176" y2="608.71" stroke="black" stroke-width="5"/>
<line x1="362.073" y1="403.742" x2="474.965" y2="457.412" stroke="black" stroke-width="5"/>
<line x1="472.926" y1="457.749" x2="585.815" y2="404.073" stroke="black" stroke-width="5"/>
<circle cx="477" cy="326" r="73.5" fill="white" stroke="black" stroke-width="5"/>
<path d="M436 342V342C440.407 348.174 446.124 353.298 452.741 357.006L453.846 357.625V357.625C468.89 363.646 485.666 363.692 500.743 357.752L501.064 357.625L505.938 354.894C510.114 352.554 514.038 349.792 517.65 346.652L523 342" stroke="black" stroke-width="4"/>
<line x1="475" y1="-4.37114e-08" x2="475" y2="90" stroke="black" stroke-width="2"/>
<path d="M466 308L465.181 306.425C463.795 303.757 461.843 301.425 459.46 299.591L459.347 299.504C458.587 298.919 457.783 298.393 456.942 297.931V297.931C451.353 294.857 444.53 294.864 438.92 297.9V297.9C438.034 298.38 437.18 298.934 436.382 299.548L435.52 300.211C433.652 301.649 431.946 303.287 430.432 305.095L428 308" stroke="black" stroke-width="4"/>
<path d="M530 308L529.181 306.425C527.795 303.757 525.843 301.425 523.46 299.591L523.347 299.504C522.587 298.919 521.783 298.393 520.942 297.931V297.931C515.353 294.857 508.53 294.864 502.92 297.9V297.9C502.034 298.38 501.18 298.934 500.382 299.548L499.52 300.211C497.652 301.649 495.946 303.287 494.432 305.095L492 308" stroke="black" stroke-width="4"/>
</svg>
